<svg xmlns="http://www.w3.org/2000/svg" width="48" height="48" viewBox="0 0 48 48"><path fill="#fff" d="M27.18 32.28A15.44 15.44 0 0 1 19 34.62 15.7 15.7 0 0 1 3.3 18.96a15.7 15.7 0 0 1 31.4 0c0 2.98-.86 5.78-2.34 8.16l2.4 2.4A18.83 18.83 0 0 0 38 18.96a19 19 0 0 0-38 0 19 19 0 0 0 29.58 15.72z"/><path fill="#fff" d="M28.3 23.08A11.78 11.78 0 1 0 6 17.76c0 6.5 5.3 11.78 11.8 11.78 1.92 0 3.72-.48 5.32-1.3l-2.52-2.52c-.88.32-1.82.52-2.8.52-4.7 0-8.5-3.8-8.5-8.48a8.48 8.48 0 1 1 16.48 2.8z"/><path fill="#fff" d="M21.92 20.16l.22.02a5.13 5.13 0 1 0-5 4.06c.36 0 .72-.04 1.06-.12l-.02-.22-2.66-2.64a2.63 2.63 0 0 1 0-3.74 2.66 2.66 0 0 1 3.76 0z"/><path fill="#fff" d="M40.44 47.54c.24-.08.4-.28.44-.52l.74-5.38 5.46-.82c.24-.04.44-.2.52-.42.02-.06.02-.14.02-.2a.62.62 0 0 0-.18-.44l-5.82-5.82a.6.6 0 0 0-.54-.16l-3.86.56-12.38-12.36a2.02 2.02 0 0 0-1.92-.5l-3.2-3.18a.99.99 0 0 0-1.42 0c-.2.2-.3.44-.3.7 0 .26.1.52.3.72l3.2 3.18a1.94 1.94 0 0 0 .48 1.92l12.4 12.36-.58 3.86v.08c0 .18.06.34.18.46l5.82 5.8a.7.7 0 0 0 .64.16"/></svg>