<svg xmlns="http://www.w3.org/2000/svg" width="24" height="24" viewBox="0 0 24 24"><path fill="#fff" d="M13.59 16.14A7.85 7.85 0 0 1 1.65 9.48a7.85 7.85 0 1 1 14.53 4.08l1.2 1.2A9.5 9.5 0 1 0 0 9.48a9.5 9.5 0 0 0 14.79 7.86z"/><path fill="#fff" d="M14.15 11.54a5.9 5.9 0 1 0-2.59 2.58l-1.26-1.26a4.24 4.24 0 1 1 2.59-2.58z"/><path fill="#fff" d="M10.96 10.08l.11.01a2.56 2.56 0 1 0-2.5 2.03c.18 0 .36-.02.53-.06l-.01-.11-1.33-1.32a1.32 1.32 0 0 1 0-1.87 1.33 1.33 0 0 1 1.88 0z"/><path fill="#fff" d="M20.22 23.77c.12-.04.2-.14.22-.26l.37-2.69 2.73-.41c.12-.02.22-.1.26-.21l.01-.1a.31.31 0 0 0-.09-.22l-2.91-2.91a.3.3 0 0 0-.27-.08l-1.93.28-6.19-6.18a1.01 1.01 0 0 0-.96-.25l-1.6-1.59a.5.5 0 0 0-.71 0c-.1.1-.15.22-.15.35 0 .13.05.26.15.36l1.6 1.59a.97.97 0 0 0 .24.96l6.2 6.18-.29 1.93v.04c0 .09.03.17.09.23l2.91 2.9c.09.08.21.11.32.08"/></svg>